<svg id="레이어_2" data-name="레이어 2" xmlns="http://www.w3.org/2000/svg" xmlns:xlink="http://www.w3.org/1999/xlink" viewBox="0 0 483.36 275.71"><defs><style>.cls-1{fill:url(#무제_그라디언트_220);}.cls-2{fill:url(#무제_그라디언트_220-2);}.cls-3{fill:url(#무제_그라디언트_358);}</style><linearGradient id="무제_그라디언트_220" x1="70.31" y1="243.5" x2="413.75" y2="243.5" gradientUnits="userSpaceOnUse"><stop offset="0" stop-color="#425fff"/><stop offset="1" stop-color="#b138ff"/></linearGradient><linearGradient id="무제_그라디언트_220-2" x1="188.09" y1="462.24" x2="311.92" y2="247.75" xlink:href="#무제_그라디언트_220"/><linearGradient id="무제_그라디언트_358" x1="507.78" y1="105.79" x2="510.68" y2="105.79" gradientUnits="userSpaceOnUse"><stop offset="0.3" stop-color="#0f5fd0"/><stop offset="1" stop-color="#ff94c8"/></linearGradient></defs><path class="cls-1" d="M413.52,312.82a316.85,316.85,0,0,0-12.47-52.66c-5.56-16.42-12.18-29.85-19.68-39.92-15.43-20.72-32.78-25.07-44.62-25.07a50.31,50.31,0,0,0-30.18,10.08C283.37,148.64,253.43,120,217.32,120c-39.07,0-74.7,37-108.93,113.25-22.64,50.39-36.57,99.94-37.15,102a25,25,0,0,0,17.35,30.81,25.33,25.33,0,0,0,6.74.92,25,25,0,0,0,24.07-18.28c.13-.47,13.49-48,34.6-95C166,227,178,206,189.61,191.27,200.13,178,210.48,170,217.32,170c10.74,0,21.44,14,26.87,22.36,9.86,15.19,19,36.47,27.21,63.27.05.19.12.38.18.57-.39,1-.78,1.93-1.16,2.92a327.91,327.91,0,0,0-15.06,52.49,25,25,0,0,0,49.16,9.14,283.77,283.77,0,0,1,11.24-40.2c9.33-25.3,18-33.83,20.9-35.25,2.77,1.63,10.7,10.47,18.43,35.18a272.41,272.41,0,0,1,8.88,39,25,25,0,0,0,24.74,21.65,26,26,0,0,0,3.39-.23A25,25,0,0,0,413.52,312.82Z" transform="translate(-27.32 -104.29)"/><path class="cls-2" d="M447.7,380a25.56,25.56,0,0,1-4.57-.42C442.46,379.46,373,367,250.32,367S57.5,379.47,56.8,379.59a25,25,0,0,1-9-49.18c3-.55,74.71-13.41,202.51-13.41s198.93,12.87,201.9,13.41A25,25,0,0,1,447.7,380Z" transform="translate(-27.32 -104.29)"/><path class="cls-3" d="M509.23,107.29a1.5,1.5,0,0,0,0-3,1.5,1.5,0,0,0,0,3Z" transform="translate(-27.32 -104.29)"/></svg>